{"title":"Cold Comes The Night 2013 BRRip 720p x264 AAC - PRiSTiNE [P2PDL]","uid":9623321,"size":623790538,"categoryP":"video","categoryS":"hd___movies","magnet":"?xt=urn:btih:b6145ac812a47851c94f2c7bb5843a568b7705d7&amp;dn=Cold+Comes+The+Night+2013+BRRip+720p+x264+AAC+-+PRiSTiNE+%5BP2PDL%5D&amp;tr=udp%3A%2F%2Ftracker.openbittorrent.com%3A80&amp;tr=udp%3A%2F%2Fopen.demonii.com%3A1337&amp;tr=udp%3A%2F%2Ftracker.coppersurfer.tk%3A6969&amp;tr=udp%3A%2F%2Fexodus.desync.com%3A6969","seeders":0,"leechers":1,"uploader":"ValidusVyto","files":-1,"time":1392551708,"description":"Cold.Comes.The.Night.2013.BRRip.720p.x264.AAC-PRiSTiNE\n\n\nGenre: Crime | Drama | Thriller &lt;a href=&quot;\nhttp://www.imdb.com/title/tt2511428/&quot; rel=&quot;nofollow&quot; target=&quot;_NEW&quot;&gt;\nhttp://www.imdb.com/title/tt2511428/&lt;/a&gt;\n\n\nFormat                                   : MPEG-4\nFile size                                : 585 MiB\nDuration                                 : 1h 30mn\nOverall bit rate mode                    : Variable\nOverall bit rate                         : 904 Kbps\n\nVideo\nFormat                                   : AVC\nBit rate                                 : 820 Kbps\nWidth                                    : 1 280 pixels\nHeight                                   : 720 pixels\nDisplay aspect ratio                     : 16:9\nFrame rate mode                          : Variable\nFrame rate                               : 23.976 fps\nBit depth                                : 8 bits\nStream size                              : 530 MiB (91%)\nWriting library                          : x264 core 142 r2389\n\nAudio\nFormat                                   : AAC\nBit rate                                 : 80.0 Kbps\nChannel(s)                               : 2 channels\nChannel positions                        : Front: L R\nSampling rate                            : 48.0 KHz\nStream size                              : 51.8 MiB (9%)\nLanguage                                 : English\n\nSubtitle:                                : Yes(English)\n &lt;a href=&quot;\nhttp://someimage.com/hLF0fnz&quot; rel=&quot;nofollow&quot; target=&quot;_NEW&quot;&gt;\nhttp://someimage.com/hLF0fnz&lt;/a&gt; &lt;a href=&quot;\nhttp://someimage.com/QFQ4rkJ&quot; rel=&quot;nofollow&quot; target=&quot;_NEW&quot;&gt;\nhttp://someimage.com/QFQ4rkJ&lt;/a&gt; &lt;a href=&quot;\nhttp://someimage.com/05D4WUq&quot; rel=&quot;nofollow&quot; target=&quot;_NEW&quot;&gt;\nhttp://someimage.com/05D4WUq&lt;/a&gt; &lt;a href=&quot;\nhttp://someimage.com/tXagD73&quot; rel=&quot;nofollow&quot; target=&quot;_NEW&quot;&gt;\nhttp://someimage.com/tXagD73&lt;/a&gt; &lt;a href=&quot;\nhttp://someimage.com/P2aZ1nl&quot; rel=&quot;nofollow&quot; target=&quot;_NEW&quot;&gt;\nhttp://someimage.com/P2aZ1nl&lt;/a&gt; &lt;a href=&quot;\nhttp://someimage.com/cX0fTuZ&quot; rel=&quot;nofollow&quot; target=&quot;_NEW&quot;&gt;\nhttp://someimage.com/cX0fTuZ&lt;/a&gt;\n\n\n----------------------------------------------------------------------------------------------------\n\n\nRecommend to you to use latest version of VLC player. Install K-Lite Codec Pack or shark007 codecs\nin case of any kind of problem in playback (For non-VLC Media Player users). Alternatively, install\nCore AVC codecs, the fastest decoder that there is coupled with Community Center Codec Pack and play\non Windows Media Player Classic. Check sample to be sure.\nEnjoy!\n\nEncoder Notes:Looking For Early Access To Anything You Can Provide DVDScr, R5, DVDR, BluRay, Direct\nAudio, Music Releases and Seedboxes. We require dedicated servers, so as to do more \nand fast releases of movies.","torrent":{"xt":"urn:btih:b6145ac812a47851c94f2c7bb5843a568b7705d7","amp;dn":"Cold+Comes+The+Night+2013+BRRip+720p+x264+AAC+-+PRiSTiNE+%5BP2PDL%5D","amp;tr":["udp%3A%2F%2Ftracker.openbittorrent.com%3A80","udp%3A%2F%2Fopen.demonii.com%3A1337","udp%3A%2F%2Ftracker.coppersurfer.tk%3A6969","udp%3A%2F%2Fexodus.desync.com%3A6969"],"infoHash":"b6145ac812a47851c94f2c7bb5843a568b7705d7","infoHashBuffer":{"type":"Buffer","data":[182,20,90,200,18,164,120,81,201,79,44,123,181,132,58,86,139,119,5,215]},"announce":[],"urlList":[]}}